<?xml version="1.0" encoding="utf-8"?>
<!-- Generator: Adobe Illustrator 27.9.2, SVG Export Plug-In . SVG Version: 6.00 Build 0)  -->
<svg version="1.1" id="Layer_1" xmlns="http://www.w3.org/2000/svg" xmlns:xlink="http://www.w3.org/1999/xlink" x="0px" y="0px"
	 viewBox="0 0 73.9 72.5" style="enable-background:new 0 0 73.9 72.5;" xml:space="preserve">
<style type="text/css">
	.st0{clip-path:url(#SVGID_00000012465383323972291790000018185345593127615122_);}
	.st1{clip-path:url(#SVGID_00000048483015510984354080000018161212865736135324_);}
	.st2{fill:#2A4B6D;}
	.st3{clip-path:url(#SVGID_00000003089983335653398670000007844314320236406425_);}
	.st4{stroke:#CEE2D4;stroke-width:0.8667;stroke-linecap:square;}
	.st5{fill:#CEE2D4;}
</style>
<g>
	<defs>
		<rect id="SVGID_1_" x="0" y="0" width="73.9" height="72.5"/>
	</defs>
	<clipPath id="SVGID_00000053528663427026088660000012621349369635400620_">
		<use xlink:href="#SVGID_1_"  style="overflow:visible;"/>
	</clipPath>
	<g style="clip-path:url(#SVGID_00000053528663427026088660000012621349369635400620_);">
		<g>
			<defs>
				<rect id="SVGID_00000057105722533785567950000009177691857543998862_" x="0" y="0" width="73.9" height="72.5"/>
			</defs>
			<clipPath id="SVGID_00000123427605789966775380000013688205909804008611_">
				<use xlink:href="#SVGID_00000057105722533785567950000009177691857543998862_"  style="overflow:visible;"/>
			</clipPath>
			<g style="clip-path:url(#SVGID_00000123427605789966775380000013688205909804008611_);">
				<path class="st2" d="M61.5,54.5l-5.9-2.5L48.7,59l2.5,5.9l-1.8,1.8l-8.7-21.1l1.6-1.6l21.1,8.7L61.5,54.5L61.5,54.5z M70.4,45.6
					l-4.5,4.5L51,35.3l4.4-4.4c2.1-2.1,4.8-3.9,8.1-3.6c2.5,0.1,4.9,1.3,7,3.4c1.9,1.9,3,3.9,3.4,6V0H18.5L0,17.9v54.7h43.4l-20.7-9
					l1.8-1.8l17.7,7.8l-7.8-17.7l1.8-1.8l9,20.8l-1.6,1.6h30.4V39.5C73.5,41.6,72.4,43.6,70.4,45.6L70.4,45.6z"/>
				<path class="st2" d="M63.1,29.4c-2-0.1-4,0.7-6,2.7l-3,3l12,12l3-3c3.8-3.8,3.5-8.2-0.1-11.8C67.2,30.6,65.2,29.5,63.1,29.4
					L63.1,29.4z"/>
				<g>
					<defs>
						<rect id="SVGID_00000124157655579317247860000006496989685434671261_" x="-650.5" y="-490.5" width="1122.5" height="793.7"/>
					</defs>
					<clipPath id="SVGID_00000069382915373209372240000017131293064627318703_">
						<use xlink:href="#SVGID_00000124157655579317247860000006496989685434671261_"  style="overflow:visible;"/>
					</clipPath>
					<g style="clip-path:url(#SVGID_00000069382915373209372240000017131293064627318703_);">
						<path vector-effect="non-scaling-stroke" class="st4" d="M96.8-201.2v-27.5"/>
						<path class="st5" d="M96.8-195.6l2.8-7.8c0,0-2.8,2.2-5.6,0L96.8-195.6L96.8-195.6z M96.8-234.3l-2.8,7.8c0,0,2.8-2.2,5.6,0
							L96.8-234.3L96.8-234.3z"/>
						<path class="st2" d="M53.7,51.2l-10.4-4.5l4.5,10.4L53.7,51.2L53.7,51.2z"/>
					</g>
				</g>
			</g>
		</g>
	</g>
</g>
</svg>
