<?xml version="1.0" encoding="UTF-8"?>
<svg id="Layer_1" data-name="Layer 1" xmlns="http://www.w3.org/2000/svg" viewBox="0 0 213.86 218.81">
  <defs>
    <style>
      .cls-2 { fill: currentColor; }
      .cls-1 { fill: #f9faf7; }
    </style>
  </defs>
  <rect class="cls-2" width="213.86" height="218.81" rx="34.41" ry="34.41"></rect>
  <g>
    <path class="cls-1" d="M135.15,95.11c1.97-.55,9.57,3.48,11.86,4.28,28.04,9.82,37.28,38.28,25.16,65.01-13.27,29.25-56.59,29.71-82.31,17.22l8.51-14.75c1.78-3.27,3.89-6.7,5.8-9.93,11.3,4.71,33.1,9.05,39.77-4.88,1.7-3.56,1.89-7.66.54-11.36-3.08-8.28-12.42-11.79-19.96-14.71-1.88-.73-6.66-3.02-8.57-2.37-.26.47-1.06,1.97-1.43,2.04-4.38.9-18.44.48-22.43.47,3.53-4.49,11.23-12.29,15.31-16.74l17.51.25,3.22-5.11c-5.14-.15-10.39-.16-15.54-.24l8.37-9.03c4.73.05,9.48.15,14.2-.15h0Z"></path>
    <path class="cls-1" d="M116.97,29.95c14.56-2.35,43.05,3.42,54.5,13.01-3.61,8.6-6.8,17.04-10.57,25.68-13.01-7.63-26.08-12.98-41.58-11.65-9.47.81-14.79,6.87-13.62,16.6.6,4.97,3.8,8.4,7.72,11.25,2.02,1.29,5.03,2.87,7.2,4.08-7.48,7.52-17.21,16.43-24.14,24.02-13.42-7.13-21.34-15.61-22.72-31.26-2.62-29.91,14.05-48.78,43.2-51.71h0Z"></path>
    <path class="cls-1" d="M85.95,132.55l24.37.15c-10.18,17.11-25.09,38.33-36.36,55.39h-12.52l-24.97-.04c15.79-18.48,33.25-37.23,49.49-55.5h0Z"></path>
    <path class="cls-1" d="M151.26,64.31c1.26,1.56-.12,18.33-.35,21.73-2.36-1.21-4.79-2.57-7.13-3.84-1.66,3.24-3.48,5.74-5.75,8.53-2.42-.02-10.37.26-11.83-.96,3.58-3.81,7.12-7.64,10.64-11.51-2.37-1.21-4.72-2.47-7.04-3.77,5-2.9,15.95-7.63,21.46-10.2h0Z"></path>
  </g>
</svg>